<svg width="50" height="50" viewBox="0 0 50 50" fill="none" xmlns="http://www.w3.org/2000/svg">
<path d="M25 1C11.746 1 1 11.9143 1 25.3758C1 36.7979 8.744 46.3552 19.184 49C19.072 48.6709 19 48.289 19 47.8157V43.6495C18.026 43.6495 16.394 43.6495 15.984 43.6495C14.342 43.6495 12.882 42.9325 12.174 41.5999C11.388 40.1191 11.252 37.8542 9.304 36.4688C8.726 36.0077 9.166 35.4816 9.832 35.5527C11.062 35.9061 12.082 36.7634 13.042 38.035C13.998 39.3086 14.448 39.597 16.234 39.597C17.1 39.597 18.396 39.5463 19.616 39.3512C20.272 37.6592 21.406 36.1011 22.792 35.3658C14.8 34.5309 10.986 30.4927 10.986 25.0102C10.986 22.6498 11.976 20.3666 13.658 18.4429C13.106 16.5335 12.412 12.6394 13.87 11.1566C17.466 11.1566 19.64 13.5251 20.162 14.165C21.954 13.5413 23.922 13.1879 25.99 13.1879C28.062 13.1879 30.038 13.5413 31.834 14.169C32.35 13.5332 34.526 11.1566 38.13 11.1566C39.594 12.6415 38.892 16.5518 38.334 18.4571C40.006 20.3767 40.99 22.6538 40.99 25.0102C40.99 30.4886 37.182 34.5248 29.202 35.3638C31.398 36.5277 33 39.7981 33 42.2621V47.8157C33 48.027 32.954 48.1794 32.93 48.3601C42.282 45.0308 49 36.0118 49 25.3758C49 11.9143 38.254 1 25 1Z" fill="black"/>
</svg>
