<svg width="48" height="48" viewBox="0 0 48 48" fill="none" xmlns="http://www.w3.org/2000/svg">
<path d="M24 4.79999C13.3968 4.79999 4.79999 13.3968 4.79999 24C4.79999 32.9968 10.9952 40.5248 19.3472 42.608C19.2576 42.3488 19.2 42.048 19.2 41.6752V38.3936C18.4208 38.3936 17.1152 38.3936 16.7872 38.3936C15.4736 38.3936 14.3056 37.8288 13.7392 36.7792C13.1104 35.6128 13.0016 33.8288 11.4432 32.7376C10.9808 32.3744 11.3328 31.96 11.8656 32.016C12.8496 32.2944 13.6656 32.9696 14.4336 33.9712C15.1984 34.9744 15.5584 35.2016 16.9872 35.2016C17.68 35.2016 18.7168 35.1616 19.6928 35.008C20.2176 33.6752 21.1248 32.448 22.2336 31.8688C15.84 31.2112 12.7888 28.0304 12.7888 23.712C12.7888 21.8528 13.5808 20.0544 14.9264 18.5392C14.4848 17.0352 13.9296 13.968 15.096 12.8C17.9728 12.8 19.712 14.6656 20.1296 15.1696C21.5632 14.6784 23.1376 14.4 24.792 14.4C26.4496 14.4 28.0304 14.6784 29.4672 15.1728C29.88 14.672 31.6208 12.8 34.504 12.8C35.6752 13.9696 35.1136 17.0496 34.6672 18.5504C36.0048 20.0624 36.792 21.856 36.792 23.712C36.792 28.0272 33.7456 31.2064 27.3616 31.8672C29.1184 32.784 30.4 35.36 30.4 37.3008V41.6752C30.4 41.8416 30.3632 41.9616 30.344 42.104C37.8256 39.4816 43.2 32.3776 43.2 24C43.2 13.3968 34.6032 4.79999 24 4.79999Z" fill="#6228BA"/>
</svg>
