<svg width="47" height="46" viewBox="0 0 47 46" fill="none" xmlns="http://www.w3.org/2000/svg">
<g filter="url(#filter0_d_71_6)">
<path d="M23.2 0C12.5968 0 4 8.59681 4 19.2C4 28.1968 10.1952 35.7248 18.5472 37.808C18.4576 37.5488 18.4 37.248 18.4 36.8752V33.5936C17.6208 33.5936 16.3152 33.5936 15.9872 33.5936C14.6736 33.5936 13.5056 33.0288 12.9392 31.9792C12.3104 30.8128 12.2016 29.0288 10.6432 27.9376C10.1808 27.5744 10.5328 27.16 11.0656 27.216C12.0496 27.4944 12.8656 28.1696 13.6336 29.1712C14.3984 30.1744 14.7584 30.4016 16.1872 30.4016C16.88 30.4016 17.9168 30.3616 18.8928 30.208C19.4176 28.8752 20.3248 27.648 21.4336 27.0688C15.04 26.4112 11.9888 23.2304 11.9888 18.912C11.9888 17.0528 12.7808 15.2544 14.1264 13.7392C13.6848 12.2352 13.1296 9.16801 14.296 8.00001C17.1728 8.00001 18.912 9.86561 19.3296 10.3696C20.7632 9.87841 22.3376 9.60001 23.992 9.60001C25.6496 9.60001 27.2304 9.87841 28.6672 10.3728C29.08 9.87201 30.8208 8.00001 33.704 8.00001C34.8752 9.16961 34.3136 12.2496 33.8672 13.7504C35.2048 15.2624 35.992 17.056 35.992 18.912C35.992 23.2272 32.9456 26.4064 26.5616 27.0672C28.3184 27.984 29.6 30.56 29.6 32.5008V36.8752C29.6 37.0416 29.5632 37.1616 29.544 37.304C37.0256 34.6816 42.4 27.5776 42.4 19.2C42.4 8.59681 33.8032 0 23.2 0Z" fill="#F4E4BF"/>
</g>
<defs>
<filter id="filter0_d_71_6" x="0" y="0" width="46.4" height="45.808" filterUnits="userSpaceOnUse" color-interpolation-filters="sRGB">
<feFlood flood-opacity="0" result="BackgroundImageFix"/>
<feColorMatrix in="SourceAlpha" type="matrix" values="0 0 0 0 0 0 0 0 0 0 0 0 0 0 0 0 0 0 127 0" result="hardAlpha"/>
<feOffset dy="4"/>
<feGaussianBlur stdDeviation="2"/>
<feComposite in2="hardAlpha" operator="out"/>
<feColorMatrix type="matrix" values="0 0 0 0 0 0 0 0 0 0 0 0 0 0 0 0 0 0 0.25 0"/>
<feBlend mode="normal" in2="BackgroundImageFix" result="effect1_dropShadow_71_6"/>
<feBlend mode="normal" in="SourceGraphic" in2="effect1_dropShadow_71_6" result="shape"/>
</filter>
</defs>
</svg>
