<svg width="56" height="57" viewBox="0 0 56 57" fill="none" xmlns="http://www.w3.org/2000/svg">
<g filter="url(#filter0_d_59_14)">
<path d="M28 1C14.746 1 4 11.9143 4 25.3758C4 36.7979 11.744 46.3552 22.184 49C22.072 48.6709 22 48.289 22 47.8157V43.6495C21.026 43.6495 19.394 43.6495 18.984 43.6495C17.342 43.6495 15.882 42.9325 15.174 41.5999C14.388 40.1191 14.252 37.8542 12.304 36.4688C11.726 36.0077 12.166 35.4816 12.832 35.5527C14.062 35.9061 15.082 36.7634 16.042 38.035C16.998 39.3086 17.448 39.597 19.234 39.597C20.1 39.597 21.396 39.5463 22.616 39.3512C23.272 37.6592 24.406 36.1011 25.792 35.3658C17.8 34.5309 13.986 30.4927 13.986 25.0102C13.986 22.6498 14.976 20.3666 16.658 18.4429C16.106 16.5335 15.412 12.6394 16.87 11.1566C20.466 11.1566 22.64 13.5251 23.162 14.165C24.954 13.5413 26.922 13.1879 28.99 13.1879C31.062 13.1879 33.038 13.5413 34.834 14.169C35.35 13.5332 37.526 11.1566 41.13 11.1566C42.594 12.6415 41.892 16.5518 41.334 18.4571C43.006 20.3767 43.99 22.6538 43.99 25.0102C43.99 30.4886 40.182 34.5248 32.202 35.3638C34.398 36.5277 36 39.7981 36 42.2621V47.8157C36 48.027 35.954 48.1794 35.93 48.3601C45.282 45.0308 52 36.0118 52 25.3758C52 11.9143 41.254 1 28 1Z" fill="black"/>
</g>
<defs>
<filter id="filter0_d_59_14" x="-1" y="0" width="58" height="58" filterUnits="userSpaceOnUse" color-interpolation-filters="sRGB">
<feFlood flood-opacity="0" result="BackgroundImageFix"/>
<feColorMatrix in="SourceAlpha" type="matrix" values="0 0 0 0 0 0 0 0 0 0 0 0 0 0 0 0 0 0 127 0" result="hardAlpha"/>
<feOffset dy="4"/>
<feGaussianBlur stdDeviation="2"/>
<feComposite in2="hardAlpha" operator="out"/>
<feColorMatrix type="matrix" values="0 0 0 0 0 0 0 0 0 0 0 0 0 0 0 0 0 0 0.25 0"/>
<feBlend mode="normal" in2="BackgroundImageFix" result="effect1_dropShadow_59_14"/>
<feBlend mode="normal" in="SourceGraphic" in2="effect1_dropShadow_59_14" result="shape"/>
</filter>
</defs>
</svg>
