<svg width="48" height="48" viewBox="0 0 48 48" fill="none" xmlns="http://www.w3.org/2000/svg">
<path d="M39.36 3.84009H8.63997C5.99037 3.84009 3.83997 5.99049 3.83997 8.64009V39.3601C3.83997 42.0097 5.99037 44.1601 8.63997 44.1601H39.36C42.0096 44.1601 44.16 42.0097 44.16 39.3601V8.64009C44.16 5.99049 42.0096 3.84009 39.36 3.84009ZM16.32 19.2001V37.4401H10.56V19.2001H16.32ZM10.56 13.8913C10.56 12.5473 11.712 11.5201 13.44 11.5201C15.168 11.5201 16.2528 12.5473 16.32 13.8913C16.32 15.2353 15.2448 16.3201 13.44 16.3201C11.712 16.3201 10.56 15.2353 10.56 13.8913ZM37.44 37.4401H31.68C31.68 37.4401 31.68 28.5505 31.68 27.8401C31.68 25.9201 30.72 24.0001 28.32 23.9617H28.2432C25.92 23.9617 24.96 25.9393 24.96 27.8401C24.96 28.7137 24.96 37.4401 24.96 37.4401H19.2V19.2001H24.96V21.6577C24.96 21.6577 26.8128 19.2001 30.5376 19.2001C34.3488 19.2001 37.44 21.8209 37.44 27.1297V37.4401Z" fill="black"/>
</svg>
