<svg width="45" height="45" viewBox="0 0 45 45" fill="none" xmlns="http://www.w3.org/2000/svg">
<g filter="url(#filter0_d_71_7)">
<path d="M37.9609 0.000833432C37.8864 0.00318343 37.8121 0.00970325 37.7383 0.0203633H28C27.735 0.0166133 27.4719 0.0655734 27.2259 0.164403C26.98 0.263233 26.7561 0.409954 26.5674 0.596044C26.3787 0.782134 26.2288 1.00387 26.1265 1.24839C26.0242 1.4929 25.9715 1.75531 25.9715 2.02036C25.9715 2.28541 26.0242 2.54782 26.1265 2.79233C26.2288 3.03684 26.3787 3.25859 26.5674 3.44468C26.7561 3.63077 26.98 3.77749 27.2259 3.87632C27.4719 3.97514 27.735 4.02408 28 4.02036H33.1719L14.5859 22.6063C14.394 22.7906 14.2407 23.0113 14.1352 23.2556C14.0296 23.4999 13.9738 23.7627 13.9711 24.0288C13.9684 24.2949 14.0188 24.5588 14.1194 24.8052C14.22 25.0515 14.3687 25.2754 14.5569 25.4635C14.745 25.6517 14.9688 25.8004 15.2152 25.901C15.4615 26.0015 15.7255 26.052 15.9916 26.0493C16.2577 26.0465 16.5205 25.9908 16.7648 25.8852C17.009 25.7796 17.2298 25.6264 17.4141 25.4344L36 6.84848V12.0204C35.9963 12.2854 36.0452 12.5485 36.144 12.7945C36.2429 13.0404 36.3896 13.2642 36.5757 13.453C36.7618 13.6417 36.9835 13.7916 37.228 13.8939C37.4725 13.9962 37.735 14.0489 38 14.0489C38.265 14.0489 38.5275 13.9962 38.772 13.8939C39.0165 13.7916 39.2382 13.6417 39.4243 13.453C39.6104 13.2642 39.7571 13.0404 39.856 12.7945C39.9548 12.5485 40.0037 12.2854 40 12.0204V2.27427C40.0398 1.98632 40.0164 1.69314 39.9314 1.41517C39.8464 1.13719 39.7018 0.881083 39.5077 0.664683C39.3136 0.448283 39.0747 0.276783 38.8075 0.162133C38.5404 0.0474831 38.2515 -0.00755657 37.9609 0.000833432ZM8 0.0203633C5.81387 0.0203633 4 1.83423 4 4.02036V32.0204C4 34.2065 5.81387 36.0204 8 36.0204H36C38.1861 36.0204 40 34.2065 40 32.0204V20.0204C40.0037 19.7554 39.9548 19.4922 39.856 19.2463C39.7571 19.0004 39.6104 18.7765 39.4243 18.5878C39.2382 18.399 39.0165 18.2492 38.772 18.1469C38.5275 18.0446 38.265 17.9919 38 17.9919C37.735 17.9919 37.4725 18.0446 37.228 18.1469C36.9835 18.2492 36.7618 18.399 36.5757 18.5878C36.3896 18.7765 36.2429 19.0004 36.144 19.2463C36.0452 19.4922 35.9963 19.7554 36 20.0204V32.0204H8V4.02036H20C20.265 4.02408 20.5281 3.97514 20.7741 3.87632C21.02 3.77749 21.2439 3.63077 21.4326 3.44468C21.6213 3.25859 21.7712 3.03684 21.8735 2.79233C21.9758 2.54782 22.0285 2.28541 22.0285 2.02036C22.0285 1.75531 21.9758 1.4929 21.8735 1.24839C21.7712 1.00387 21.6213 0.782134 21.4326 0.596044C21.2439 0.409954 21.02 0.263233 20.7741 0.164403C20.5281 0.0655734 20.265 0.0166133 20 0.0203633H8Z" fill="#F4E4BF"/>
</g>
<defs>
<filter id="filter0_d_71_7" x="0" y="0" width="44.0189" height="44.0204" filterUnits="userSpaceOnUse" color-interpolation-filters="sRGB">
<feFlood flood-opacity="0" result="BackgroundImageFix"/>
<feColorMatrix in="SourceAlpha" type="matrix" values="0 0 0 0 0 0 0 0 0 0 0 0 0 0 0 0 0 0 127 0" result="hardAlpha"/>
<feOffset dy="4"/>
<feGaussianBlur stdDeviation="2"/>
<feComposite in2="hardAlpha" operator="out"/>
<feColorMatrix type="matrix" values="0 0 0 0 0 0 0 0 0 0 0 0 0 0 0 0 0 0 0.25 0"/>
<feBlend mode="normal" in2="BackgroundImageFix" result="effect1_dropShadow_71_7"/>
<feBlend mode="normal" in="SourceGraphic" in2="effect1_dropShadow_71_7" result="shape"/>
</filter>
</defs>
</svg>
