<svg width="48" height="48" viewBox="0 0 48 48" fill="none" xmlns="http://www.w3.org/2000/svg">
<path d="M39.9609 5.98045C39.8864 5.9828 39.8121 5.98932 39.7383 5.99998H30C29.735 5.99623 29.4719 6.04519 29.2259 6.14402C28.98 6.24285 28.7561 6.38957 28.5674 6.57566C28.3787 6.76175 28.2288 6.98349 28.1265 7.22801C28.0242 7.47252 27.9715 7.73493 27.9715 7.99998C27.9715 8.26503 28.0242 8.52744 28.1265 8.77195C28.2288 9.01646 28.3787 9.23821 28.5674 9.4243C28.7561 9.61039 28.98 9.75711 29.2259 9.85594C29.4719 9.95476 29.735 10.0037 30 9.99998H35.1719L16.5859 28.5859C16.394 28.7702 16.2407 28.9909 16.1352 29.2352C16.0296 29.4795 15.9738 29.7423 15.9711 30.0084C15.9684 30.2745 16.0188 30.5384 16.1194 30.7848C16.22 31.0311 16.3687 31.255 16.5569 31.4431C16.745 31.6313 16.9688 31.78 17.2152 31.8806C17.4615 31.9811 17.7255 32.0316 17.9916 32.0289C18.2577 32.0261 18.5205 31.9704 18.7648 31.8648C19.009 31.7592 19.2298 31.606 19.4141 31.414L38 12.8281V18C37.9963 18.265 38.0452 18.5281 38.144 18.7741C38.2429 19.02 38.3896 19.2438 38.5757 19.4326C38.7618 19.6213 38.9835 19.7712 39.228 19.8735C39.4725 19.9758 39.735 20.0285 40 20.0285C40.265 20.0285 40.5275 19.9758 40.772 19.8735C41.0165 19.7712 41.2382 19.6213 41.4243 19.4326C41.6104 19.2438 41.7571 19.02 41.856 18.7741C41.9548 18.5281 42.0037 18.265 42 18V8.25389C42.0398 7.96594 42.0164 7.67276 41.9314 7.39479C41.8464 7.11681 41.7018 6.8607 41.5077 6.6443C41.3136 6.4279 41.0747 6.2564 40.8075 6.14175C40.5404 6.0271 40.2515 5.97206 39.9609 5.98045ZM10 5.99998C7.81387 5.99998 6 7.81385 6 9.99998V38C6 40.1861 7.81387 42 10 42H38C40.1861 42 42 40.1861 42 38V26C42.0037 25.735 41.9548 25.4718 41.856 25.2259C41.7571 24.98 41.6104 24.7561 41.4243 24.5674C41.2382 24.3786 41.0165 24.2288 40.772 24.1265C40.5275 24.0242 40.265 23.9715 40 23.9715C39.735 23.9715 39.4725 24.0242 39.228 24.1265C38.9835 24.2288 38.7618 24.3786 38.5757 24.5674C38.3896 24.7561 38.2429 24.98 38.144 25.2259C38.0452 25.4718 37.9963 25.735 38 26V38H10V9.99998H22C22.265 10.0037 22.5281 9.95476 22.7741 9.85594C23.02 9.75711 23.2439 9.61039 23.4326 9.4243C23.6213 9.23821 23.7712 9.01646 23.8735 8.77195C23.9758 8.52744 24.0285 8.26503 24.0285 7.99998C24.0285 7.73493 23.9758 7.47252 23.8735 7.22801C23.7712 6.98349 23.6213 6.76175 23.4326 6.57566C23.2439 6.38957 23.02 6.24285 22.7741 6.14402C22.5281 6.04519 22.265 5.99623 22 5.99998H10Z" fill="#6228BA"/>
</svg>
