<svg width="184" height="52" viewBox="0 0 184 52" fill="none" xmlns="http://www.w3.org/2000/svg">
<g clip-path="url(#clip0_72_8)" filter="url(#filter0_d_72_8)">
<path d="M18.9641 27.5009V32.2219H4V7.60242H8.91988V27.5009H18.9641Z" fill="#E5E8D8"/>
<path d="M40.9058 22.1786C40.9577 19.5409 39.9933 16.9858 38.2157 15.0518C37.3378 14.1421 36.2854 13.4227 35.1228 12.9375C33.9602 12.4523 32.7118 12.2115 31.4539 12.2297C25.7001 12.2297 21.5221 16.4129 21.5221 22.1759C21.4931 23.4824 21.7231 24.7816 22.1987 25.997C22.6742 27.2125 23.3858 28.3197 24.2914 29.2536C25.3088 30.2162 26.5053 30.9655 27.8115 31.4581C29.1178 31.9507 30.5079 32.1768 31.9014 32.1234C35.1574 32.1234 37.7161 31.0479 39.5249 28.9297L35.9534 26.8579C34.8237 27.7595 33.4205 28.2402 31.9806 28.219C28.4091 28.219 27.0011 26.4001 26.4487 24.8791L26.0737 23.85H40.7941C40.8686 23.296 40.9059 22.7377 40.9058 22.1786ZM26.0406 20.8312L26.3039 19.8684C26.9679 17.4386 28.7767 16.0972 31.4146 16.0972C32.5527 16.0356 33.676 16.3794 34.5885 17.0687C35.501 17.7579 36.1446 18.7489 36.407 19.8684L36.6703 20.8312H26.0406Z" fill="#E5E8D8"/>
<path d="M62.1977 27.9253C60.9863 29.6471 59.2644 30.936 57.2804 31.606C55.2964 32.276 53.1528 32.2926 51.1588 31.6533C49.1649 31.014 47.4236 29.7519 46.1862 28.049C44.9488 26.3461 44.2793 24.2905 44.2742 22.1787C44.282 20.0688 44.9518 18.0157 46.1876 16.314C47.4234 14.6124 49.1615 13.3498 51.1525 12.7074C53.1435 12.065 55.2849 12.076 57.2693 12.7387C59.2537 13.4014 60.9791 14.6817 62.1977 16.3959L58.2445 18.7061C57.7598 18.0607 57.1286 17.5423 56.404 17.1945C55.6794 16.8467 54.8826 16.6797 54.0808 16.7075C53.3704 16.6913 52.6643 16.8227 52.0063 17.0935C51.3484 17.3644 50.7527 17.769 50.2561 18.2821C49.7596 18.7952 49.373 19.4059 49.1202 20.0762C48.8673 20.7465 48.7538 21.4622 48.7865 22.1787C48.7549 22.8947 48.8694 23.6097 49.1227 24.2793C49.376 24.9489 49.7629 25.5588 50.2593 26.0713C50.7557 26.5838 51.3511 26.9879 52.0086 27.2586C52.666 27.5293 53.3715 27.6609 54.0814 27.6451C54.8839 27.6713 55.681 27.5035 56.4063 27.1559C57.1316 26.8082 57.7641 26.2907 58.2513 25.6465L62.1977 27.9253Z" fill="#E5E8D8"/>
<path d="M72.1689 25.4688C72.1689 28.0251 74.7473 28.0251 75.7207 28.0251C75.9049 28.0251 76.0957 28.0251 76.3063 28.0121V32.0293C75.6023 32.0825 74.9382 32.1153 74.3398 32.1153C71.781 32.1153 70.0447 31.5906 69.0321 30.5089C68.0918 29.4997 67.6505 27.8932 67.6505 25.4627V17.1168H64.4337V12.8011H67.6498V8.75113L72.1621 7.38452V12.8024H76.2995V17.1182H72.1621V25.4688H72.1689Z" fill="#E5E8D8"/>
<path d="M97.5122 12.2366V32.1549H92.9998V28.0715L91.6317 29.9635C90.6387 31.3377 88.7643 32.1214 86.4946 32.1214C85.618 32.1394 84.7468 31.9793 83.9328 31.6507C83.1188 31.322 82.3785 30.8314 81.7561 30.2082C80.361 28.6469 79.635 26.5916 79.7368 24.4916V12.2366H84.2492V23.5965C84.2492 26.3051 85.9199 28.0516 88.505 28.0516C91.3203 28.0516 92.9978 26.2067 92.9978 23.112V12.2366H97.5122Z" fill="#E5E8D8"/>
<path d="M111.358 12.4361V17.6811C111.266 17.6811 111.174 17.6743 111.075 17.6743C109.702 17.6415 108.357 18.066 107.247 18.8824C106.612 19.3875 106.107 20.0387 105.773 20.7815C105.439 21.5242 105.286 22.337 105.327 23.1517V32.1549H100.814V12.2366H105.327V15.7898C106.106 14.8752 106.994 14.0611 107.971 13.3661C108.466 13.0937 108.994 12.8883 109.542 12.7552C109.707 12.7149 111.358 12.4224 111.358 12.4361Z" fill="#E5E8D8"/>
<path d="M132.846 22.1787C132.897 19.5419 131.933 16.988 130.156 15.0546C129.278 14.1449 128.226 13.4255 127.063 12.9403C125.901 12.4551 124.652 12.2143 123.394 12.2325C117.64 12.2325 113.462 16.4157 113.462 22.1787C113.434 23.4846 113.663 24.7831 114.138 25.9984C114.612 27.2136 115.322 28.3212 116.225 29.2564C117.242 30.219 118.439 30.9683 119.745 31.4609C121.051 31.9535 122.442 32.1797 123.835 32.1262C127.084 32.1262 129.643 31.0507 131.458 28.9325L127.887 26.8607C126.758 27.7633 125.354 28.2442 123.914 28.2218C120.336 28.2218 118.935 26.4029 118.376 24.8819L118.008 23.8528H132.728C132.808 23.2985 132.847 22.7389 132.846 22.1787ZM117.974 20.8312L118.237 19.8685C118.895 17.4386 120.71 16.0973 123.348 16.0973C124.486 16.0356 125.61 16.3795 126.522 17.0688C127.435 17.758 128.078 18.7489 128.341 19.8685L128.604 20.8312H117.974Z" fill="#E5E8D8"/>
<path d="M173.399 44H143.016C141.264 44 139.584 43.2977 138.346 42.0475C137.107 40.7973 136.412 39.1017 136.412 37.3337V6.66631C136.412 4.8983 137.107 3.20269 138.346 1.95252C139.584 0.702342 141.264 0 143.016 0H173.399C175.15 0 176.83 0.702342 178.068 1.95252C179.307 3.20269 180.003 4.8983 180.003 6.66631V37.3337C180.002 39.1014 179.306 40.7963 178.067 42.0463C176.829 43.2962 175.15 43.9989 173.399 44Z" fill="#6A26BF"/>
<path d="M143.259 17.2029V31.8099H159.729V27.1293H148.619V12.1833L143.259 17.2029Z" fill="white"/>
<path d="M154.71 12.1833H161.097L163.958 16.6118L166.793 12.1833H173.18L166.682 22.3085V26.8498L161.347 31.816V22.4479L154.71 12.1833Z" fill="white"/>
</g>
<defs>
<filter id="filter0_d_72_8" x="0" y="0" width="184" height="52" filterUnits="userSpaceOnUse" color-interpolation-filters="sRGB">
<feFlood flood-opacity="0" result="BackgroundImageFix"/>
<feColorMatrix in="SourceAlpha" type="matrix" values="0 0 0 0 0 0 0 0 0 0 0 0 0 0 0 0 0 0 127 0" result="hardAlpha"/>
<feOffset dy="4"/>
<feGaussianBlur stdDeviation="2"/>
<feComposite in2="hardAlpha" operator="out"/>
<feColorMatrix type="matrix" values="0 0 0 0 1 0 0 0 0 1 0 0 0 0 1 0 0 0 0.25 0"/>
<feBlend mode="normal" in2="BackgroundImageFix" result="effect1_dropShadow_72_8"/>
<feBlend mode="normal" in="SourceGraphic" in2="effect1_dropShadow_72_8" result="shape"/>
</filter>
<clipPath id="clip0_72_8">
<rect width="176" height="44" fill="white" transform="translate(4)"/>
</clipPath>
</defs>
</svg>
