<svg width="176" height="44" viewBox="0 0 176 44" fill="none" xmlns="http://www.w3.org/2000/svg">
<g clip-path="url(#clip0_8_118)">
<path d="M14.9641 27.5009V32.2219H0V7.60242H4.91988V27.5009H14.9641Z" fill="#E5E8D8"/>
<path d="M36.9058 22.1787C36.9577 19.541 35.9933 16.9859 34.2157 15.0518C33.3378 14.1422 32.2854 13.4228 31.1228 12.9376C29.9602 12.4524 28.7118 12.2115 27.4539 12.2298C21.7001 12.2298 17.5221 16.413 17.5221 22.176C17.4931 23.4825 17.7231 24.7816 18.1987 25.9971C18.6742 27.2126 19.3858 28.3198 20.2914 29.2536C21.3088 30.2162 22.5053 30.9655 23.8115 31.4581C25.1178 31.9508 26.5079 32.1769 27.9014 32.1235C31.1574 32.1235 33.7161 31.048 35.5249 28.9297L31.9534 26.858C30.8237 27.7595 29.4205 28.2403 27.9806 28.2191C24.4091 28.2191 23.0011 26.4001 22.4487 24.8791L22.0737 23.8501H36.7941C36.8686 23.2961 36.9059 22.7377 36.9058 22.1787ZM22.0406 20.8312L22.3039 19.8684C22.9679 17.4386 24.7767 16.0973 27.4146 16.0973C28.5527 16.0356 29.676 16.3795 30.5885 17.0687C31.501 17.758 32.1446 18.7489 32.407 19.8684L32.6703 20.8312H22.0406Z" fill="#E5E8D8"/>
<path d="M58.1977 27.9253C56.9863 29.6471 55.2644 30.936 53.2804 31.606C51.2964 32.276 49.1528 32.2926 47.1588 31.6533C45.1649 31.014 43.4236 29.7519 42.1862 28.049C40.9488 26.3461 40.2793 24.2905 40.2742 22.1787C40.282 20.0688 40.9518 18.0157 42.1876 16.314C43.4234 14.6124 45.1615 13.3498 47.1525 12.7074C49.1435 12.065 51.2849 12.076 53.2693 12.7387C55.2537 13.4014 56.9791 14.6817 58.1977 16.3959L54.2445 18.7061C53.7598 18.0607 53.1286 17.5423 52.404 17.1945C51.6794 16.8467 50.8826 16.6797 50.0808 16.7075C49.3704 16.6913 48.6643 16.8227 48.0063 17.0935C47.3484 17.3644 46.7527 17.769 46.2561 18.2821C45.7596 18.7952 45.373 19.4059 45.1202 20.0762C44.8673 20.7465 44.7538 21.4622 44.7865 22.1787C44.7549 22.8947 44.8694 23.6097 45.1227 24.2793C45.376 24.9489 45.7629 25.5588 46.2593 26.0713C46.7557 26.5838 47.3511 26.9879 48.0086 27.2586C48.666 27.5293 49.3715 27.6609 50.0814 27.6451C50.8839 27.6713 51.681 27.5035 52.4063 27.1559C53.1316 26.8082 53.7641 26.2907 54.2513 25.6465L58.1977 27.9253Z" fill="#E5E8D8"/>
<path d="M68.1689 25.4688C68.1689 28.025 70.7473 28.025 71.7207 28.025C71.9049 28.025 72.0957 28.025 72.3063 28.012V32.0292C71.6023 32.0825 70.9382 32.1153 70.3398 32.1153C67.781 32.1153 66.0447 31.5905 65.0321 30.5088C64.0918 29.4996 63.6505 27.8931 63.6505 25.4626V17.1168H60.4337V12.801H63.6498V8.75107L68.1621 7.38446V12.8024H72.2995V17.1181H68.1621V25.4688H68.1689Z" fill="#E5E8D8"/>
<path d="M93.5122 12.2366V32.1549H88.9998V28.0715L87.6317 29.9636C86.6387 31.3377 84.7643 32.1215 82.4946 32.1215C81.618 32.1395 80.7468 31.9794 79.9328 31.6507C79.1188 31.322 78.3785 30.8315 77.7561 30.2082C76.361 28.647 75.635 26.5917 75.7368 24.4917V12.2366H80.2492V23.5966C80.2492 26.3052 81.9199 28.0517 84.505 28.0517C87.3203 28.0517 88.9978 26.2068 88.9978 23.1121V12.2366H93.5122Z" fill="#E5E8D8"/>
<path d="M107.358 12.4362V17.6812C107.266 17.6812 107.174 17.6744 107.075 17.6744C105.702 17.6415 104.357 18.0661 103.247 18.8824C102.612 19.3876 102.107 20.0388 101.773 20.7815C101.439 21.5243 101.286 22.337 101.327 23.1517V32.1549H96.8142V12.2366H101.327V15.7898C102.106 14.8752 102.994 14.0612 103.971 13.3661C104.466 13.0938 104.994 12.8884 105.542 12.7553C105.707 12.7149 107.358 12.4225 107.358 12.4362Z" fill="#E5E8D8"/>
<path d="M128.846 22.1787C128.897 19.5419 127.933 16.988 126.156 15.0546C125.278 14.1449 124.226 13.4255 123.063 12.9403C121.901 12.4551 120.652 12.2143 119.394 12.2325C113.64 12.2325 109.462 16.4157 109.462 22.1787C109.434 23.4846 109.663 24.7831 110.138 25.9984C110.612 27.2136 111.322 28.3212 112.225 29.2564C113.242 30.219 114.439 30.9683 115.745 31.4609C117.051 31.9535 118.442 32.1797 119.835 32.1262C123.084 32.1262 125.643 31.0507 127.458 28.9325L123.887 26.8607C122.758 27.7633 121.354 28.2442 119.914 28.2218C116.336 28.2218 114.935 26.4029 114.376 24.8819L114.008 23.8528H128.728C128.808 23.2985 128.847 22.7389 128.846 22.1787ZM113.974 20.8312L114.237 19.8685C114.895 17.4386 116.71 16.0973 119.348 16.0973C120.486 16.0356 121.61 16.3795 122.522 17.0688C123.435 17.758 124.078 18.7489 124.341 19.8685L124.604 20.8312H113.974Z" fill="#E5E8D8"/>
<path d="M169.399 44H139.016C137.264 44 135.584 43.2977 134.346 42.0475C133.107 40.7973 132.412 39.1017 132.412 37.3337V6.66631C132.412 4.8983 133.107 3.20269 134.346 1.95252C135.584 0.702342 137.264 0 139.016 0H169.399C171.15 0 172.83 0.702342 174.068 1.95252C175.307 3.20269 176.003 4.8983 176.003 6.66631V37.3337C176.002 39.1014 175.306 40.7963 174.067 42.0463C172.829 43.2962 171.15 43.9989 169.399 44Z" fill="#6A26BF"/>
<path d="M139.259 17.2028V31.8098H155.729V27.1292H144.619V12.1833L139.259 17.2028Z" fill="white"/>
<path d="M150.71 12.1833H157.097L159.958 16.6118L162.793 12.1833H169.18L162.682 22.3085V26.8497L157.347 31.816V22.4479L150.71 12.1833Z" fill="white"/>
</g>
<defs>
<clipPath id="clip0_8_118">
<rect width="176" height="44" fill="white"/>
</clipPath>
</defs>
</svg>
