<svg width="298" height="305" viewBox="0 0 298 305" fill="none" xmlns="http://www.w3.org/2000/svg">
<g clip-path="url(#clip0_26_418)">
<path d="M298 152.5C298.052 188.498 285.611 223.345 262.895 250.828C262.07 251.831 261.229 252.818 260.374 253.799C250.302 265.392 238.57 275.354 225.578 283.344C222.598 285.175 219.553 286.901 216.442 288.521C216.127 288.684 215.808 288.848 215.493 289.006C215.117 289.201 214.735 289.391 214.354 289.581C206.482 293.524 198.283 296.742 189.854 299.196C188.977 299.449 188.099 299.695 187.219 299.934C176.131 302.937 164.74 304.617 153.274 304.942C152.676 304.958 152.088 304.968 151.521 304.979C151.32 304.984 151.124 304.989 150.928 304.989C150.284 304.995 149.645 305 149 305C136.917 305.009 124.878 303.515 113.147 300.552C111.972 300.256 110.801 299.945 109.636 299.618C103.499 297.903 97.4761 295.782 91.6067 293.27C88.5132 291.95 85.4748 290.527 82.4914 289.001C81.816 288.652 81.1406 288.304 80.4755 287.945C80.1919 287.803 79.9135 287.65 79.6351 287.502C63.734 278.912 49.4743 267.462 37.5387 253.699C36.7138 252.754 35.9044 251.794 35.1053 250.828C21.9544 234.87 12.1448 216.318 6.28385 196.321C0.422917 176.325 -1.36449 155.31 1.03233 134.578C3.42916 113.846 9.95918 93.8382 20.218 75.794C30.4767 57.7498 44.2458 42.0534 60.6724 29.6768C61.5179 29.0383 62.3687 28.4051 63.2297 27.7877C63.3998 27.6664 63.5699 27.545 63.7401 27.4236C78.8686 16.5777 95.8489 8.72927 113.802 4.28478C114.823 4.02622 115.844 3.78349 116.875 3.55659C136.321 -0.796949 156.417 -1.15746 176 2.49594C177.026 2.69118 178.052 2.8917 179.073 3.10805C196.866 6.84326 213.836 13.8961 229.135 23.9145C229.475 24.1362 229.816 24.3578 230.156 24.59C230.842 25.0438 231.527 25.5081 232.203 25.9778C252.47 39.9235 269.074 58.7593 280.548 80.8241C292.023 102.889 298.016 127.504 298 152.5Z" fill="#66456A"/>
<path d="M111.363 231.394L63.74 235.721L63.2296 235.768V27.7877C63.3997 27.6663 63.5699 27.545 63.74 27.4236C73.6652 20.3182 84.4016 14.481 95.7106 10.0418L98.1441 44.3939L98.3658 47.5388L100.773 81.606L101.516 92.0857L111.276 230.18L111.363 231.394Z" fill="#180C14"/>
<path d="M229.135 23.9145C229.475 24.1362 229.816 24.3578 230.156 24.59V235.768L229.135 235.673L182.027 231.394L182.115 230.18L191.875 92.0857L192.617 81.606L195.025 47.5388L195.247 44.3939L197.799 8.36903C208.804 12.2735 219.322 17.4913 229.135 23.9145Z" fill="#180C14"/>
<path d="M229.135 23.9145V238.649C229.135 242.771 226.361 246.121 222.948 246.121H69.9268C67.1015 246.121 64.7041 243.821 63.9772 240.681C63.8185 240.016 63.7388 239.334 63.74 238.649V27.4236C63.5699 27.545 63.3997 27.6664 63.2296 27.7877C62.3686 28.4051 61.5179 29.0383 60.6723 29.6768V238.649C60.6267 241.78 61.7688 244.806 63.8586 247.092C64.9544 248.267 66.3404 249.117 67.8697 249.551C68.5402 249.738 69.232 249.832 69.9268 249.831H222.948C223.645 249.832 224.338 249.738 225.011 249.551C229.125 248.417 232.203 243.963 232.203 238.649V25.9778C231.527 25.5081 230.842 25.0438 230.156 24.59C229.816 24.3578 229.475 24.1362 229.135 23.9145Z" fill="#180C14"/>
<path d="M230.67 44.396H62.2063V47.5404H230.67V44.396Z" fill="#180C14"/>
<path d="M113.802 4.28477C114.823 4.02621 115.844 3.78348 116.875 3.55658V88.9407H113.802V4.28477Z" fill="#180C14"/>
<path d="M176 2.49593C177.026 2.69118 178.052 2.8917 179.073 3.10805V88.9408H176V2.49593Z" fill="#180C14"/>
<path d="M249.871 230.18H48.1234C44.4561 230.18 40.939 231.671 38.3458 234.325C35.7526 236.979 34.2958 240.579 34.2958 244.332C34.2958 248.086 35.7526 251.686 38.3458 254.34C40.939 256.994 44.4561 258.485 48.1234 258.485H249.871C251.835 258.485 253.776 258.057 255.565 257.228C257.354 256.399 258.95 255.188 260.245 253.678C260.831 252.995 261.352 252.256 261.802 251.472C262.15 250.871 262.451 250.243 262.704 249.593C263.546 247.446 263.861 245.121 263.621 242.82C263.38 240.52 262.592 238.315 261.326 236.398C260.059 234.482 258.352 232.913 256.355 231.829C254.358 230.745 252.132 230.179 249.871 230.18Z" fill="#180C14"/>
<path d="M230.67 81.6054H63.2303V92.0869H230.67V81.6054Z" fill="#180C14"/>
<path d="M145.414 78.4609H148.486C149.226 78.4609 149.959 78.61 150.642 78.8998C151.325 79.1895 151.946 79.6141 152.469 80.1494C152.992 80.6847 153.407 81.3202 153.69 82.0197C153.973 82.7191 154.119 83.4687 154.119 84.2258H139.782C139.782 82.6968 140.375 81.2305 141.431 80.1494C142.488 79.0683 143.92 78.4609 145.414 78.4609Z" fill="#180C14"/>
<path d="M262.895 250.828C258.416 256.26 253.571 261.364 248.397 266.105H49.6031C44.4285 261.364 39.5841 256.26 35.1052 250.828H262.895Z" fill="#3F3D56"/>
<path d="M165.643 197.918H132.172C131.991 197.916 131.812 197.944 131.641 198.002C131.277 198.117 130.96 198.348 130.734 198.661C130.509 198.975 130.387 199.354 130.388 199.743V253.862H167.432V199.743C167.431 199.503 167.385 199.265 167.295 199.044C167.205 198.822 167.073 198.62 166.907 198.451C166.741 198.281 166.544 198.147 166.327 198.055C166.11 197.964 165.877 197.917 165.643 197.918ZM152.975 224.618C152.976 225.496 152.693 226.35 152.171 227.046C151.672 227.721 150.979 228.219 150.189 228.47C149.399 228.721 148.551 228.712 147.767 228.443C146.982 228.175 146.299 227.662 145.815 226.976C145.33 226.289 145.069 225.465 145.066 224.618V218.339C145.076 217.272 145.497 216.252 146.237 215.501C146.978 214.75 147.978 214.329 149.021 214.329C150.063 214.329 151.063 214.75 151.804 215.501C152.545 216.252 152.965 217.272 152.975 218.339V224.618Z" fill="#2F2E41"/>
<path d="M130.274 252.132V257.35C130.274 257.621 130.379 257.881 130.565 258.072C130.752 258.264 131.005 258.373 131.269 258.374H166.55C166.814 258.372 167.067 258.263 167.253 258.071C167.439 257.88 167.544 257.621 167.545 257.35V252.132H130.274Z" fill="#3F3D56"/>
<path d="M221.067 113.462H77.9956C76.7663 113.464 75.5878 113.964 74.7181 114.853C73.8484 115.742 73.3584 116.948 73.3555 118.206V217.02C73.3564 218.279 73.8456 219.486 74.7156 220.377C75.5856 221.267 76.7653 221.768 77.9956 221.769H221.067C222.297 221.768 223.477 221.267 224.347 220.377C225.217 219.486 225.706 218.279 225.707 217.02V118.206C225.704 116.948 225.214 115.742 224.344 114.853C223.474 113.964 222.296 113.464 221.067 113.462Z" fill="#3F3D56"/>
<path d="M219.87 116.892H79.1866C78.5284 116.893 77.8977 117.162 77.4328 117.639C76.9679 118.116 76.7067 118.762 76.7067 119.435V215.801C76.7078 216.474 76.9694 217.118 77.4343 217.594C77.8991 218.07 78.5292 218.338 79.1866 218.339H219.87C220.528 218.338 221.158 218.07 221.623 217.594C222.088 217.118 222.349 216.474 222.35 215.801V119.435C222.35 118.762 222.089 118.116 221.624 117.639C221.159 117.162 220.529 116.894 219.87 116.892Z" fill="#842DDA"/>
<path d="M193.978 258.29L192.679 251.973C192.625 251.716 192.509 251.476 192.342 251.276C192.174 251.076 191.961 250.922 191.72 250.828C191.546 250.758 191.361 250.722 191.174 250.723H110.069C109.882 250.722 109.697 250.758 109.523 250.828C109.282 250.922 109.069 251.076 108.901 251.276C108.734 251.476 108.618 251.716 108.564 251.973L107.265 258.29C107.218 258.519 107.221 258.756 107.275 258.984C107.329 259.211 107.432 259.424 107.576 259.606C107.72 259.788 107.902 259.935 108.109 260.036C108.315 260.136 108.541 260.189 108.77 260.189H192.468C192.697 260.19 192.924 260.138 193.132 260.037C193.339 259.935 193.521 259.787 193.664 259.604C193.808 259.422 193.912 259.21 193.966 258.983C194.02 258.756 194.025 258.519 193.978 258.29Z" fill="#2F2E41"/>
<path d="M112.99 251.86H110.915C110.776 251.86 110.664 251.976 110.664 252.118V253.186C110.664 253.328 110.776 253.443 110.915 253.443H112.99C113.129 253.443 113.242 253.328 113.242 253.186V252.118C113.242 251.976 113.129 251.86 112.99 251.86Z" fill="#3F3D56"/>
<path d="M118.146 251.86H116.071C115.932 251.86 115.819 251.976 115.819 252.118V253.186C115.819 253.328 115.932 253.443 116.071 253.443H118.146C118.285 253.443 118.397 253.328 118.397 253.186V252.118C118.397 251.976 118.285 251.86 118.146 251.86Z" fill="#3F3D56"/>
<path d="M123.301 251.86H121.227C121.088 251.86 120.975 251.976 120.975 252.118V253.186C120.975 253.328 121.088 253.443 121.227 253.443H123.301C123.44 253.443 123.553 253.328 123.553 253.186V252.118C123.553 251.976 123.44 251.86 123.301 251.86Z" fill="#3F3D56"/>
<path d="M128.457 251.86H126.383C126.244 251.86 126.131 251.976 126.131 252.118V253.186C126.131 253.328 126.244 253.443 126.383 253.443H128.457C128.596 253.443 128.709 253.328 128.709 253.186V252.118C128.709 251.976 128.596 251.86 128.457 251.86Z" fill="#3F3D56"/>
<path d="M133.613 251.86H131.538C131.399 251.86 131.286 251.976 131.286 252.118V253.186C131.286 253.328 131.399 253.443 131.538 253.443H133.613C133.752 253.443 133.864 253.328 133.864 253.186V252.118C133.864 251.976 133.752 251.86 133.613 251.86Z" fill="#3F3D56"/>
<path d="M138.768 251.86H136.694C136.555 251.86 136.442 251.976 136.442 252.118V253.186C136.442 253.328 136.555 253.443 136.694 253.443H138.768C138.907 253.443 139.02 253.328 139.02 253.186V252.118C139.02 251.976 138.907 251.86 138.768 251.86Z" fill="#3F3D56"/>
<path d="M143.924 251.86H141.85C141.711 251.86 141.598 251.976 141.598 252.118V253.186C141.598 253.328 141.711 253.443 141.85 253.443H143.924C144.063 253.443 144.176 253.328 144.176 253.186V252.118C144.176 251.976 144.063 251.86 143.924 251.86Z" fill="#3F3D56"/>
<path d="M149.08 251.86H147.005C146.866 251.86 146.754 251.976 146.754 252.118V253.186C146.754 253.328 146.866 253.443 147.005 253.443H149.08C149.219 253.443 149.332 253.328 149.332 253.186V252.118C149.332 251.976 149.219 251.86 149.08 251.86Z" fill="#3F3D56"/>
<path d="M154.236 251.86H152.161C152.022 251.86 151.909 251.976 151.909 252.118V253.186C151.909 253.328 152.022 253.443 152.161 253.443H154.236C154.375 253.443 154.487 253.328 154.487 253.186V252.118C154.487 251.976 154.375 251.86 154.236 251.86Z" fill="#3F3D56"/>
<path d="M159.391 251.86H157.317C157.178 251.86 157.065 251.976 157.065 252.118V253.186C157.065 253.328 157.178 253.443 157.317 253.443H159.391C159.53 253.443 159.643 253.328 159.643 253.186V252.118C159.643 251.976 159.53 251.86 159.391 251.86Z" fill="#3F3D56"/>
<path d="M164.547 251.86H162.473C162.334 251.86 162.221 251.976 162.221 252.118V253.186C162.221 253.328 162.334 253.443 162.473 253.443H164.547C164.686 253.443 164.799 253.328 164.799 253.186V252.118C164.799 251.976 164.686 251.86 164.547 251.86Z" fill="#3F3D56"/>
<path d="M169.703 251.86H167.628C167.489 251.86 167.376 251.976 167.376 252.118V253.186C167.376 253.328 167.489 253.443 167.628 253.443H169.703C169.842 253.443 169.954 253.328 169.954 253.186V252.118C169.954 251.976 169.842 251.86 169.703 251.86Z" fill="#3F3D56"/>
<path d="M174.858 251.86H172.784C172.645 251.86 172.532 251.976 172.532 252.118V253.186C172.532 253.328 172.645 253.443 172.784 253.443H174.858C174.997 253.443 175.11 253.328 175.11 253.186V252.118C175.11 251.976 174.997 251.86 174.858 251.86Z" fill="#3F3D56"/>
<path d="M180.014 251.86H177.94C177.801 251.86 177.688 251.976 177.688 252.118V253.186C177.688 253.328 177.801 253.443 177.94 253.443H180.014C180.153 253.443 180.266 253.328 180.266 253.186V252.118C180.266 251.976 180.153 251.86 180.014 251.86Z" fill="#3F3D56"/>
<path d="M185.17 251.86H183.095C182.956 251.86 182.844 251.976 182.844 252.118V253.186C182.844 253.328 182.956 253.443 183.095 253.443H185.17C185.309 253.443 185.421 253.328 185.421 253.186V252.118C185.421 251.976 185.309 251.86 185.17 251.86Z" fill="#3F3D56"/>
<path d="M190.325 251.86H188.251C188.112 251.86 187.999 251.976 187.999 252.118V253.186C187.999 253.328 188.112 253.443 188.251 253.443H190.325C190.464 253.443 190.577 253.328 190.577 253.186V252.118C190.577 251.976 190.464 251.86 190.325 251.86Z" fill="#3F3D56"/>
<path d="M112.929 254.499H110.854C110.715 254.499 110.603 254.614 110.603 254.756V255.824C110.603 255.966 110.715 256.082 110.854 256.082H112.929C113.068 256.082 113.181 255.966 113.181 255.824V254.756C113.181 254.614 113.068 254.499 112.929 254.499Z" fill="#3F3D56"/>
<path d="M118.085 254.499H116.01C115.871 254.499 115.758 254.614 115.758 254.756V255.824C115.758 255.966 115.871 256.082 116.01 256.082H118.085C118.224 256.082 118.336 255.966 118.336 255.824V254.756C118.336 254.614 118.224 254.499 118.085 254.499Z" fill="#3F3D56"/>
<path d="M123.24 254.499H121.166C121.027 254.499 120.914 254.614 120.914 254.756V255.824C120.914 255.966 121.027 256.082 121.166 256.082H123.24C123.379 256.082 123.492 255.966 123.492 255.824V254.756C123.492 254.614 123.379 254.499 123.24 254.499Z" fill="#3F3D56"/>
<path d="M128.396 254.499H126.322C126.183 254.499 126.07 254.614 126.07 254.756V255.824C126.07 255.966 126.183 256.082 126.322 256.082H128.396C128.535 256.082 128.648 255.966 128.648 255.824V254.756C128.648 254.614 128.535 254.499 128.396 254.499Z" fill="#3F3D56"/>
<path d="M133.552 254.499H131.477C131.338 254.499 131.226 254.614 131.226 254.756V255.824C131.226 255.966 131.338 256.082 131.477 256.082H133.552C133.691 256.082 133.803 255.966 133.803 255.824V254.756C133.803 254.614 133.691 254.499 133.552 254.499Z" fill="#3F3D56"/>
<path d="M138.708 254.499H136.633C136.494 254.499 136.381 254.614 136.381 254.756V255.824C136.381 255.966 136.494 256.082 136.633 256.082H138.708C138.847 256.082 138.959 255.966 138.959 255.824V254.756C138.959 254.614 138.847 254.499 138.708 254.499Z" fill="#3F3D56"/>
<path d="M143.863 254.499H141.789C141.65 254.499 141.537 254.614 141.537 254.756V255.824C141.537 255.966 141.65 256.082 141.789 256.082H143.863C144.002 256.082 144.115 255.966 144.115 255.824V254.756C144.115 254.614 144.002 254.499 143.863 254.499Z" fill="#3F3D56"/>
<path d="M149.019 254.499H146.944C146.805 254.499 146.693 254.614 146.693 254.756V255.824C146.693 255.966 146.805 256.082 146.944 256.082H149.019C149.158 256.082 149.271 255.966 149.271 255.824V254.756C149.271 254.614 149.158 254.499 149.019 254.499Z" fill="#3F3D56"/>
<path d="M154.175 254.499H152.1C151.961 254.499 151.848 254.614 151.848 254.756V255.824C151.848 255.966 151.961 256.082 152.1 256.082H154.175C154.314 256.082 154.426 255.966 154.426 255.824V254.756C154.426 254.614 154.314 254.499 154.175 254.499Z" fill="#3F3D56"/>
<path d="M159.33 254.499H157.256C157.117 254.499 157.004 254.614 157.004 254.756V255.824C157.004 255.966 157.117 256.082 157.256 256.082H159.33C159.469 256.082 159.582 255.966 159.582 255.824V254.756C159.582 254.614 159.469 254.499 159.33 254.499Z" fill="#3F3D56"/>
<path d="M164.486 254.499H162.412C162.273 254.499 162.16 254.614 162.16 254.756V255.824C162.16 255.966 162.273 256.082 162.412 256.082H164.486C164.625 256.082 164.738 255.966 164.738 255.824V254.756C164.738 254.614 164.625 254.499 164.486 254.499Z" fill="#3F3D56"/>
<path d="M169.642 254.499H167.567C167.428 254.499 167.316 254.614 167.316 254.756V255.824C167.316 255.966 167.428 256.082 167.567 256.082H169.642C169.781 256.082 169.893 255.966 169.893 255.824V254.756C169.893 254.614 169.781 254.499 169.642 254.499Z" fill="#3F3D56"/>
<path d="M174.797 254.499H172.723C172.584 254.499 172.471 254.614 172.471 254.756V255.824C172.471 255.966 172.584 256.082 172.723 256.082H174.797C174.936 256.082 175.049 255.966 175.049 255.824V254.756C175.049 254.614 174.936 254.499 174.797 254.499Z" fill="#3F3D56"/>
<path d="M179.953 254.499H177.879C177.74 254.499 177.627 254.614 177.627 254.756V255.824C177.627 255.966 177.74 256.082 177.879 256.082H179.953C180.092 256.082 180.205 255.966 180.205 255.824V254.756C180.205 254.614 180.092 254.499 179.953 254.499Z" fill="#3F3D56"/>
<path d="M185.109 254.499H183.034C182.895 254.499 182.783 254.614 182.783 254.756V255.824C182.783 255.966 182.895 256.082 183.034 256.082H185.109C185.248 256.082 185.361 255.966 185.361 255.824V254.756C185.361 254.614 185.248 254.499 185.109 254.499Z" fill="#3F3D56"/>
<path d="M190.265 254.499H188.19C188.051 254.499 187.938 254.614 187.938 254.756V255.824C187.938 255.966 188.051 256.082 188.19 256.082H190.265C190.404 256.082 190.516 255.966 190.516 255.824V254.756C190.516 254.614 190.404 254.499 190.265 254.499Z" fill="#3F3D56"/>
<path d="M155.721 257.665H135.602C135.463 257.665 135.35 257.78 135.35 257.922V258.99C135.35 259.132 135.463 259.248 135.602 259.248H155.721C155.86 259.248 155.973 259.132 155.973 258.99V257.922C155.973 257.78 155.86 257.665 155.721 257.665Z" fill="#3F3D56"/>
<path d="M212.801 130.167H81.1636C81.0268 130.164 80.8965 130.106 80.8008 130.006C80.7051 129.906 80.6515 129.771 80.6515 129.631C80.6515 129.491 80.7051 129.356 80.8008 129.256C80.8965 129.156 81.0268 129.098 81.1636 129.095H212.801C212.938 129.098 213.068 129.156 213.164 129.256C213.259 129.356 213.313 129.491 213.313 129.631C213.313 129.771 213.259 129.906 213.164 130.006C213.068 130.106 212.938 130.164 212.801 130.167Z" fill="#3F3D56"/>
<path d="M90.1244 126.36C91.8187 126.36 93.1923 124.922 93.1923 123.15C93.1923 121.377 91.8187 119.94 90.1244 119.94C88.4301 119.94 87.0565 121.377 87.0565 123.15C87.0565 124.922 88.4301 126.36 90.1244 126.36Z" fill="#3F3D56"/>
<path d="M100.722 126.36C102.417 126.36 103.79 124.922 103.79 123.15C103.79 121.377 102.417 119.94 100.722 119.94C99.0281 119.94 97.6545 121.377 97.6545 123.15C97.6545 124.922 99.0281 126.36 100.722 126.36Z" fill="#3F3D56"/>
<path d="M111.321 126.36C113.015 126.36 114.388 124.922 114.388 123.15C114.388 121.377 113.015 119.94 111.321 119.94C109.626 119.94 108.253 121.377 108.253 123.15C108.253 124.922 109.626 126.36 111.321 126.36Z" fill="#3F3D56"/>
<path d="M206.419 120.734H198.892C198.743 120.737 198.601 120.8 198.497 120.909C198.393 121.018 198.335 121.164 198.335 121.317C198.335 121.469 198.393 121.615 198.497 121.724C198.601 121.833 198.743 121.896 198.892 121.9H206.419C206.569 121.898 206.712 121.835 206.817 121.726C206.922 121.617 206.981 121.47 206.981 121.317C206.981 121.163 206.922 121.016 206.817 120.907C206.712 120.798 206.569 120.736 206.419 120.734Z" fill="#3F3D56"/>
<path d="M206.419 122.923H198.892C198.743 122.927 198.601 122.99 198.497 123.099C198.393 123.208 198.334 123.354 198.334 123.507C198.334 123.659 198.393 123.805 198.497 123.914C198.601 124.023 198.743 124.086 198.892 124.09H206.419C206.569 124.088 206.712 124.026 206.818 123.916C206.923 123.807 206.982 123.66 206.982 123.507C206.982 123.353 206.923 123.206 206.818 123.097C206.712 122.988 206.569 122.925 206.419 122.923Z" fill="#3F3D56"/>
<path d="M206.419 125.113H198.892C198.743 125.117 198.601 125.18 198.497 125.289C198.393 125.398 198.335 125.544 198.335 125.696C198.335 125.849 198.393 125.995 198.497 126.104C198.601 126.213 198.743 126.276 198.892 126.279H206.419C206.569 126.277 206.712 126.215 206.817 126.106C206.922 125.997 206.981 125.85 206.981 125.696C206.981 125.543 206.922 125.396 206.817 125.287C206.712 125.178 206.569 125.115 206.419 125.113Z" fill="#3F3D56"/>
<path d="M92.5142 142.618H89.8094C88.9894 142.618 88.3246 143.299 88.3246 144.138C88.3246 144.977 88.9894 145.658 89.8094 145.658H92.5142C93.3342 145.658 93.999 144.977 93.999 144.138C93.999 143.299 93.3342 142.618 92.5142 142.618Z" fill="#E6E6E6"/>
<path d="M123.448 142.618H120.744C119.924 142.618 119.259 143.299 119.259 144.138C119.259 144.977 119.924 145.658 120.744 145.658H123.448C124.268 145.658 124.933 144.977 124.933 144.138C124.933 143.299 124.268 142.618 123.448 142.618Z" fill="#E6E6E6"/>
<path d="M132.213 142.618H129.508C128.688 142.618 128.024 143.299 128.024 144.138C128.024 144.977 128.688 145.658 129.508 145.658H132.213C133.033 145.658 133.698 144.977 133.698 144.138C133.698 143.299 133.033 142.618 132.213 142.618Z" fill="#E6E6E6"/>
<path d="M115.034 142.365H98.2236C97.4036 142.365 96.7388 143.045 96.7388 143.885C96.7388 144.724 97.4036 145.404 98.2236 145.404H115.034C115.854 145.404 116.519 144.724 116.519 143.885C116.519 143.045 115.854 142.365 115.034 142.365Z" fill="#E6E6E6"/>
<path d="M156.28 142.365H139.469C138.649 142.365 137.984 143.045 137.984 143.885C137.984 144.724 138.649 145.404 139.469 145.404H156.28C157.1 145.404 157.765 144.724 157.765 143.885C157.765 143.045 157.1 142.365 156.28 142.365Z" fill="#E6E6E6"/>
<path d="M100.763 149.478H98.0586C97.2385 149.478 96.5737 150.159 96.5737 150.998C96.5737 151.837 97.2385 152.518 98.0586 152.518H100.763C101.583 152.518 102.248 151.837 102.248 150.998C102.248 150.159 101.583 149.478 100.763 149.478Z" fill="#E6E6E6"/>
<path d="M131.698 149.478H128.993C128.173 149.478 127.508 150.159 127.508 150.998C127.508 151.837 128.173 152.518 128.993 152.518H131.698C132.518 152.518 133.182 151.837 133.182 150.998C133.182 150.159 132.518 149.478 131.698 149.478Z" fill="#E6E6E6"/>
<path d="M140.462 149.478H137.758C136.937 149.478 136.273 150.159 136.273 150.998C136.273 151.837 136.937 152.518 137.758 152.518H140.462C141.282 152.518 141.947 151.837 141.947 150.998C141.947 150.159 141.282 149.478 140.462 149.478Z" fill="#E6E6E6"/>
<path d="M123.283 149.225H106.473C105.653 149.225 104.988 149.905 104.988 150.744C104.988 151.584 105.653 152.264 106.473 152.264H123.283C124.103 152.264 124.768 151.584 124.768 150.744C124.768 149.905 124.103 149.225 123.283 149.225Z" fill="#E6E6E6"/>
<path d="M164.529 149.225H147.718C146.898 149.225 146.234 149.905 146.234 150.744C146.234 151.584 146.898 152.264 147.718 152.264H164.529C165.349 152.264 166.014 151.584 166.014 150.744C166.014 149.905 165.349 149.225 164.529 149.225Z" fill="#E6E6E6"/>
<path d="M109.012 156.338H106.308C105.488 156.338 104.823 157.018 104.823 157.858C104.823 158.697 105.488 159.377 106.308 159.377H109.012C109.833 159.377 110.497 158.697 110.497 157.858C110.497 157.018 109.833 156.338 109.012 156.338Z" fill="#E6E6E6"/>
<path d="M139.947 156.338H137.242C136.422 156.338 135.757 157.018 135.757 157.858C135.757 158.697 136.422 159.377 137.242 159.377H139.947C140.767 159.377 141.431 158.697 141.431 157.858C141.431 157.018 140.767 156.338 139.947 156.338Z" fill="#E6E6E6"/>
<path d="M148.711 156.338H146.007C145.187 156.338 144.522 157.018 144.522 157.858C144.522 158.697 145.187 159.377 146.007 159.377H148.711C149.531 159.377 150.196 158.697 150.196 157.858C150.196 157.018 149.531 156.338 148.711 156.338Z" fill="#E6E6E6"/>
<path d="M131.532 156.085H114.722C113.902 156.085 113.237 156.765 113.237 157.604C113.237 158.444 113.902 159.124 114.722 159.124H131.532C132.353 159.124 133.017 158.444 133.017 157.604C133.017 156.765 132.353 156.085 131.532 156.085Z" fill="#E6E6E6"/>
<path d="M172.778 156.085H155.968C155.148 156.085 154.483 156.765 154.483 157.604C154.483 158.444 155.148 159.124 155.968 159.124H172.778C173.598 159.124 174.263 158.444 174.263 157.604C174.263 156.765 173.598 156.085 172.778 156.085Z" fill="#E6E6E6"/>
<path d="M117.262 163.198H114.557C113.737 163.198 113.072 163.878 113.072 164.718C113.072 165.557 113.737 166.237 114.557 166.237H117.262C118.082 166.237 118.746 165.557 118.746 164.718C118.746 163.878 118.082 163.198 117.262 163.198Z" fill="#E6E6E6"/>
<path d="M148.196 163.198H145.491C144.671 163.198 144.006 163.878 144.006 164.718C144.006 165.557 144.671 166.237 145.491 166.237H148.196C149.016 166.237 149.681 165.557 149.681 164.718C149.681 163.878 149.016 163.198 148.196 163.198Z" fill="#E6E6E6"/>
<path d="M156.961 163.198H154.256C153.436 163.198 152.771 163.878 152.771 164.718C152.771 165.557 153.436 166.237 154.256 166.237H156.961C157.781 166.237 158.445 165.557 158.445 164.718C158.445 163.878 157.781 163.198 156.961 163.198Z" fill="#E6E6E6"/>
<path d="M139.782 162.944H122.971C122.151 162.944 121.486 163.625 121.486 164.464C121.486 165.303 122.151 165.984 122.971 165.984H139.782C140.602 165.984 141.266 165.303 141.266 164.464C141.266 163.625 140.602 162.944 139.782 162.944Z" fill="#E6E6E6"/>
<path d="M123.448 190.476H120.744C119.924 190.476 119.259 191.156 119.259 191.995C119.259 192.835 119.924 193.515 120.744 193.515H123.448C124.268 193.515 124.933 192.835 124.933 191.995C124.933 191.156 124.268 190.476 123.448 190.476Z" fill="#E6E6E6"/>
<path d="M132.213 190.476H129.508C128.688 190.476 128.024 191.156 128.024 191.995C128.024 192.835 128.688 193.515 129.508 193.515H132.213C133.033 193.515 133.698 192.835 133.698 191.995C133.698 191.156 133.033 190.476 132.213 190.476Z" fill="#E6E6E6"/>
<path d="M156.28 190.729H139.469C138.649 190.729 137.984 191.409 137.984 192.249C137.984 193.088 138.649 193.768 139.469 193.768H156.28C157.1 193.768 157.765 193.088 157.765 192.249C157.765 191.409 157.1 190.729 156.28 190.729Z" fill="#E6E6E6"/>
<path d="M92.5142 190.476H89.8094C88.9894 190.476 88.3246 191.156 88.3246 191.995C88.3246 192.835 88.9894 193.515 89.8094 193.515H92.5142C93.3342 193.515 93.999 192.835 93.999 191.995C93.999 191.156 93.3342 190.476 92.5142 190.476Z" fill="#E6E6E6"/>
<path d="M115.034 190.729H98.2236C97.4036 190.729 96.7388 191.409 96.7388 192.249C96.7388 193.088 97.4036 193.768 98.2236 193.768H115.034C115.854 193.768 116.519 193.088 116.519 192.249C116.519 191.409 115.854 190.729 115.034 190.729Z" fill="#E6E6E6"/>
<path d="M100.763 183.616H98.0586C97.2385 183.616 96.5737 184.296 96.5737 185.135C96.5737 185.975 97.2385 186.655 98.0586 186.655H100.763C101.583 186.655 102.248 185.975 102.248 185.135C102.248 184.296 101.583 183.616 100.763 183.616Z" fill="#E6E6E6"/>
<path d="M131.698 183.616H128.993C128.173 183.616 127.508 184.296 127.508 185.135C127.508 185.975 128.173 186.655 128.993 186.655H131.698C132.518 186.655 133.182 185.975 133.182 185.135C133.182 184.296 132.518 183.616 131.698 183.616Z" fill="#E6E6E6"/>
<path d="M140.462 183.616H137.758C136.937 183.616 136.273 184.296 136.273 185.135C136.273 185.975 136.937 186.655 137.758 186.655H140.462C141.282 186.655 141.947 185.975 141.947 185.135C141.947 184.296 141.282 183.616 140.462 183.616Z" fill="#E6E6E6"/>
<path d="M123.283 183.869H106.473C105.653 183.869 104.988 184.549 104.988 185.389C104.988 186.228 105.653 186.908 106.473 186.908H123.283C124.103 186.908 124.768 186.228 124.768 185.389C124.768 184.549 124.103 183.869 123.283 183.869Z" fill="#E6E6E6"/>
<path d="M109.012 176.756H106.308C105.488 176.756 104.823 177.436 104.823 178.276C104.823 179.115 105.488 179.795 106.308 179.795H109.012C109.833 179.795 110.497 179.115 110.497 178.276C110.497 177.436 109.833 176.756 109.012 176.756Z" fill="#E6E6E6"/>
<path d="M139.947 176.756H137.242C136.422 176.756 135.757 177.436 135.757 178.276C135.757 179.115 136.422 179.795 137.242 179.795H139.947C140.767 179.795 141.431 179.115 141.431 178.276C141.431 177.436 140.767 176.756 139.947 176.756Z" fill="#E6E6E6"/>
<path d="M148.711 176.756H146.007C145.187 176.756 144.522 177.436 144.522 178.276C144.522 179.115 145.187 179.795 146.007 179.795H148.711C149.531 179.795 150.196 179.115 150.196 178.276C150.196 177.436 149.531 176.756 148.711 176.756Z" fill="#E6E6E6"/>
<path d="M131.532 177.009H114.722C113.902 177.009 113.237 177.69 113.237 178.529C113.237 179.368 113.902 180.049 114.722 180.049H131.532C132.353 180.049 133.017 179.368 133.017 178.529C133.017 177.69 132.353 177.009 131.532 177.009Z" fill="#E6E6E6"/>
<path d="M117.262 169.896H114.557C113.737 169.896 113.072 170.576 113.072 171.416C113.072 172.255 113.737 172.935 114.557 172.935H117.262C118.082 172.935 118.746 172.255 118.746 171.416C118.746 170.576 118.082 169.896 117.262 169.896Z" fill="#E6E6E6"/>
<path d="M148.196 169.896H145.491C144.671 169.896 144.006 170.576 144.006 171.416C144.006 172.255 144.671 172.935 145.491 172.935H148.196C149.016 172.935 149.681 172.255 149.681 171.416C149.681 170.576 149.016 169.896 148.196 169.896Z" fill="#E6E6E6"/>
<path d="M156.961 169.896H154.256C153.436 169.896 152.771 170.576 152.771 171.416C152.771 172.255 153.436 172.935 154.256 172.935H156.961C157.781 172.935 158.445 172.255 158.445 171.416C158.445 170.576 157.781 169.896 156.961 169.896Z" fill="#E6E6E6"/>
<path d="M139.782 170.149H122.971C122.151 170.149 121.486 170.83 121.486 171.669C121.486 172.508 122.151 173.189 122.971 173.189H139.782C140.602 173.189 141.266 172.508 141.266 171.669C141.266 170.83 140.602 170.149 139.782 170.149Z" fill="#E6E6E6"/>
<path d="M214.888 289.576C214.574 289.739 214.254 289.903 213.94 290.061C205.794 294.23 199.277 296.599 190.362 299.196C189.61 290.594 188.883 275.476 188.176 266.105C187.991 263.672 187.805 261.63 187.625 260.189C187.579 259.423 187.426 258.668 187.171 257.947L187.202 260.189L187.279 266.105L187.728 299.934C176.639 302.937 165.249 304.618 153.783 304.942C153.185 304.958 152.597 304.968 152.03 304.979C151.829 304.984 151.633 304.989 151.437 304.989C150.792 304.995 150.153 305 149.509 305C137.426 305.009 125.387 303.515 113.656 300.552C113.908 292.04 114.161 277.091 114.403 266.105C114.455 263.957 114.501 261.957 114.553 260.189C114.651 256.411 114.754 253.688 114.852 252.775C114.765 252.937 114.698 253.109 114.651 253.287C114.173 255.563 113.848 257.869 113.676 260.189C113.496 261.957 113.316 263.957 113.135 266.105C112.176 277.518 111.176 293.037 110.145 299.618C104.007 297.903 97.9848 295.782 92.1153 293.27C89.0219 291.95 85.9834 290.527 83 289.001C83.5671 285.201 84.16 280.943 84.7684 276.526C85.2427 273.102 85.7325 269.582 86.2326 266.105C87.006 260.733 87.8 255.467 88.6043 250.828C89.7798 244.053 90.9862 238.607 92.1823 236.106C93.3166 233.731 94.4508 231.388 95.549 229.146C95.9305 228.36 96.312 227.584 96.6833 226.829C96.7709 226.65 96.8585 226.476 96.9462 226.302C97.735 224.713 98.4981 223.194 99.225 221.769C99.8489 220.55 100.442 219.4 101.004 218.339C102.365 215.764 103.52 213.711 104.376 212.413C107.954 206.858 113.28 202.723 119.471 200.693L119.626 200.651L119.734 200.698L130.278 197.385L131.819 196.899L132.856 196.572L136.506 193.728L138.491 192.182L140.352 190.731L142 186L148 189.5L155.5 191.5L162.5 190.731L168.5 190L170.915 200.129L180.742 203.806L180.912 203.727L181.062 203.664L181.216 203.706C187.406 205.737 192.733 209.873 196.312 215.426C196.797 216.17 197.385 217.152 198.05 218.339C198.617 219.347 199.235 220.497 199.906 221.769C200.86 223.579 201.901 225.621 203.004 227.832C203.247 228.317 203.494 228.813 203.742 229.315C204.2 230.243 204.666 231.191 205.139 232.159C206.237 234.401 207.371 236.744 208.505 239.124C209.49 241.187 210.485 245.43 211.465 250.828C212.274 255.313 213.079 260.601 213.857 266.105C214.878 273.239 213.79 281.782 214.713 288.346C214.77 288.763 214.831 289.17 214.888 289.576Z" fill="#180C14"/>
<path opacity="0.2" d="M106.373 250.805L110.753 233.501L114.622 248.432L106.373 250.805Z" fill="black"/>
<path d="M222.948 239.531C221.381 261.63 223.005 271.36 214.354 289.581C206.482 293.524 198.283 296.742 189.854 299.195C188.977 299.449 188.099 299.695 187.219 299.934C176.131 302.937 164.74 304.617 153.274 304.942C152.676 304.958 152.088 304.968 151.521 304.979C151.32 304.984 151.124 304.989 150.928 304.989C150.284 304.995 149.644 305 149 305C136.917 305.009 124.878 303.515 113.147 300.552C111.972 300.256 110.801 299.945 109.636 299.618C103.499 297.903 97.4761 295.782 91.6066 293.27C88.5132 291.95 85.4748 290.527 82.4913 289.001C81.8159 288.652 81.1405 288.304 80.4755 287.945C77.0572 281.793 75.1135 274.31 75.0723 265.318C77.4387 249.826 217.72 226.17 222.948 239.531Z" fill="#180C14"/>
<path opacity="0.2" d="M222.944 243.315C223.024 241.947 223.114 240.534 223.218 239.062C217.99 225.701 77.7086 249.357 75.3422 264.85C75.3487 266.27 75.408 267.649 75.5078 268.995C81.2387 253.703 214.508 231.22 222.944 243.315Z" fill="black"/>
<path d="M84.0873 180.547C84.1215 180.069 84.0552 179.588 83.8927 179.138C83.7303 178.688 83.4756 178.279 83.1457 177.939C82.8158 177.598 82.4185 177.333 81.9804 177.163C81.5422 176.992 81.0736 176.92 80.6058 176.951C80.4315 176.957 80.2582 176.98 80.0876 177.017L59.5875 181.757C59.1294 181.871 58.6996 182.081 58.3259 182.375C57.9522 182.669 57.6428 183.04 57.4176 183.464C57.1169 183.476 56.8184 183.52 56.527 183.597C55.889 183.745 55.2858 184.02 54.7518 184.406C54.2177 184.793 53.7633 185.283 53.4144 185.85C53.0656 186.416 52.8291 187.047 52.7186 187.707C52.6081 188.367 52.6256 189.043 52.7702 189.695C52.9148 190.348 53.1836 190.966 53.5614 191.512C53.9391 192.059 54.4183 192.524 54.9716 192.881C56.0892 193.602 57.4408 193.839 58.7292 193.541C59.4625 193.366 60.1486 193.027 60.7371 192.546L67.6839 212.567C68.0309 213.194 68.567 213.69 69.212 213.98C69.857 214.269 70.5764 214.338 71.2625 214.174L84.5893 211.092C85.2702 210.928 85.8829 210.549 86.3397 210.007C86.7964 209.465 87.0737 208.789 87.1315 208.075L84.0873 180.547ZM58.4215 192.115C57.5014 192.328 56.5365 192.158 55.7384 191.643C54.9403 191.129 54.3741 190.311 54.1641 189.37C53.954 188.429 54.1172 187.441 54.6178 186.623C55.1184 185.805 55.9156 185.223 56.8346 185.005C56.8994 184.989 56.9642 185.005 57.0289 184.989C57.0241 185.593 57.1749 186.187 57.4662 186.712L60.0084 191.253C59.5659 191.683 59.0172 191.981 58.4215 192.115Z" fill="#2F2E41"/>
<path d="M80.6058 176.951C80.8001 179.602 76.3633 182.652 70.4205 183.862C64.9634 185.005 60.0732 184.21 58.6968 182.122C58.9734 181.954 59.2739 181.831 59.5875 181.757L80.0877 177.017C80.2582 176.98 80.4316 176.957 80.6058 176.951Z" fill="#3F3D56"/>
<path d="M66.4279 244.267L77.9425 238.374L68.347 211.858L65.8182 198.485C65.4896 196.748 64.7213 195.129 63.5901 193.791C62.4588 192.453 61.0042 191.442 59.3717 190.859C57.7391 190.277 55.9857 190.143 54.2867 190.471C52.5878 190.799 51.0027 191.578 49.69 192.73C47.7447 194.436 46.5233 196.849 46.2835 199.46C46.0437 202.071 46.8044 204.675 48.4049 206.723L57.792 218.732L66.4279 244.267Z" fill="#A0616A"/>
<path d="M77.9425 233.464L62.5897 241.32L74.2409 278.685C75.0775 281.368 76.5774 283.784 78.595 285.7C80.6126 287.615 83.0795 288.964 85.7565 289.617C89.0573 290.421 92.5227 290.129 95.6502 288.782C98.7777 287.435 101.405 285.103 103.151 282.125L134.046 227.925C136.236 224.19 136.911 219.727 135.929 215.489C134.947 211.251 132.385 207.574 128.789 205.244C126.856 203.991 124.686 203.168 122.421 202.83C120.157 202.491 117.848 202.645 115.645 203.28C113.442 203.916 111.394 205.019 109.635 206.518C107.877 208.017 106.446 209.878 105.436 211.98L86.5786 253.106L77.9425 233.464Z" fill="#180C14"/>
<path d="M73.194 199.697C73.1654 199.697 73.1371 199.692 73.1101 199.682L69.7582 198.501C69.7177 198.487 69.6812 198.463 69.6522 198.43C69.6232 198.398 69.6025 198.359 69.592 198.317C69.5815 198.274 69.5815 198.23 69.592 198.187C69.6025 198.145 69.6232 198.106 69.6522 198.073L72.1452 195.295C72.168 195.27 72.1956 195.249 72.2263 195.234C72.257 195.219 72.2903 195.211 72.3242 195.209C72.3581 195.208 72.3919 195.213 72.4238 195.225C72.4557 195.237 72.485 195.255 72.51 195.278C72.535 195.302 72.5552 195.33 72.5695 195.362C72.5838 195.393 72.5918 195.427 72.5932 195.462C72.5946 195.497 72.5893 195.531 72.5775 195.564C72.5658 195.597 72.5479 195.626 72.5248 195.652L70.2981 198.133L73.2778 199.183C73.3355 199.204 73.3842 199.244 73.4154 199.298C73.4466 199.352 73.4583 199.415 73.4482 199.476C73.4381 199.538 73.4071 199.594 73.3605 199.634C73.314 199.674 73.255 199.697 73.194 199.697Z" fill="#6C63FF"/>
<path d="M77.7885 198.734C77.7372 198.734 77.687 198.718 77.6444 198.689C77.6019 198.66 77.5688 198.618 77.5496 198.569C77.5303 198.52 77.5257 198.467 77.5363 198.415C77.547 198.364 77.5724 198.317 77.6093 198.281L79.875 196.038L76.8314 194.755C76.8001 194.742 76.7716 194.722 76.7475 194.698C76.7235 194.673 76.7044 194.644 76.6914 194.612C76.6783 194.58 76.6716 194.546 76.6715 194.511C76.6714 194.477 76.678 194.442 76.6909 194.41C76.7039 194.378 76.7228 194.349 76.7467 194.325C76.7707 194.3 76.7991 194.281 76.8304 194.267C76.8617 194.254 76.8952 194.247 76.9291 194.247C76.9629 194.247 76.9965 194.254 77.0278 194.267L80.4354 195.704C80.475 195.721 80.5099 195.748 80.5369 195.781C80.564 195.815 80.5824 195.856 80.5904 195.899C80.5985 195.942 80.5959 195.986 80.583 196.028C80.5701 196.07 80.5472 196.107 80.5164 196.138L77.9678 198.66C77.9197 198.707 77.8554 198.734 77.7885 198.734Z" fill="#6C63FF"/>
<path d="M73.8976 201.311C73.8718 201.311 73.8463 201.307 73.8218 201.299C73.7894 201.289 73.7593 201.272 73.7332 201.25C73.7071 201.228 73.6855 201.201 73.6696 201.17C73.6538 201.139 73.644 201.106 73.6408 201.071C73.6376 201.037 73.6411 201.002 73.6511 200.969L76.0303 193.054C76.0506 192.987 76.096 192.931 76.1564 192.899C76.2168 192.866 76.2873 192.86 76.3525 192.88C76.4177 192.901 76.4723 192.947 76.5043 193.009C76.5363 193.07 76.5431 193.142 76.5232 193.209L74.144 201.125C74.1277 201.178 74.095 201.226 74.0507 201.259C74.0063 201.293 73.9527 201.311 73.8976 201.311Z" fill="#6C63FF"/>
</g>
<defs>
<clipPath id="clip0_26_418">
<rect width="298" height="305" fill="white"/>
</clipPath>
</defs>
</svg>
