<svg width="56" height="53" viewBox="0 0 56 53" fill="none" xmlns="http://www.w3.org/2000/svg">
<g clip-path="url(#clip0_59_10)" filter="url(#filter0_d_59_10)">
<path d="M52.06 10.0201C50.2862 10.8076 48.385 11.3363 46.3862 11.5763C48.4262 10.3538 49.9937 8.41883 50.7287 6.11633C48.8237 7.24508 46.705 8.06633 44.4587 8.50883C42.6587 6.58883 40.0937 5.39258 37.255 5.39258C31.8025 5.39258 27.3812 9.81008 27.3812 15.2626C27.3812 16.0351 27.4712 16.7888 27.64 17.5126C19.435 17.1001 12.1637 13.1701 7.29248 7.19633C6.44123 8.65883 5.95748 10.3538 5.95748 12.1613C5.95748 15.5851 7.69748 18.6076 10.3487 20.3813C8.72872 20.3288 7.20623 19.8826 5.87498 19.1438C5.87498 19.1851 5.87498 19.2263 5.87498 19.2676C5.87498 24.0526 9.27997 28.0388 13.7912 28.9501C12.9662 29.1751 12.0925 29.2951 11.1925 29.2951C10.555 29.2951 9.93623 29.2351 9.33248 29.1151C10.5925 33.0338 14.2375 35.8951 18.5537 35.9738C15.1787 38.6213 10.9225 40.1963 6.29498 40.1963C5.49623 40.1963 4.71248 40.1513 3.94373 40.0576C8.30873 42.8626 13.4987 44.4938 19.075 44.4938C37.2325 44.4938 47.1625 29.4526 47.1625 16.4101C47.1625 15.9826 47.1512 15.5513 47.1362 15.1313C49.0637 13.7401 50.7362 12.0001 52.06 10.0201Z" fill="black"/>
</g>
<defs>
<filter id="filter0_d_59_10" x="0" y="0" width="56" height="56" filterUnits="userSpaceOnUse" color-interpolation-filters="sRGB">
<feFlood flood-opacity="0" result="BackgroundImageFix"/>
<feColorMatrix in="SourceAlpha" type="matrix" values="0 0 0 0 0 0 0 0 0 0 0 0 0 0 0 0 0 0 127 0" result="hardAlpha"/>
<feOffset dy="4"/>
<feGaussianBlur stdDeviation="2"/>
<feComposite in2="hardAlpha" operator="out"/>
<feColorMatrix type="matrix" values="0 0 0 0 0 0 0 0 0 0 0 0 0 0 0 0 0 0 0.25 0"/>
<feBlend mode="normal" in2="BackgroundImageFix" result="effect1_dropShadow_59_10"/>
<feBlend mode="normal" in="SourceGraphic" in2="effect1_dropShadow_59_10" result="shape"/>
</filter>
<clipPath id="clip0_59_10">
<rect width="48" height="48" fill="white" transform="translate(4)"/>
</clipPath>
</defs>
</svg>
