<svg width="48" height="48" viewBox="0 0 48 48" fill="none" xmlns="http://www.w3.org/2000/svg">
<g clip-path="url(#clip0_18_207)">
<path d="M48.06 10.0201C46.2862 10.8076 44.385 11.3363 42.3862 11.5763C44.4262 10.3538 45.9937 8.41883 46.7287 6.11633C44.8237 7.24508 42.705 8.06633 40.4587 8.50883C38.6587 6.58883 36.0937 5.39258 33.255 5.39258C27.8025 5.39258 23.3812 9.81008 23.3812 15.2626C23.3812 16.0351 23.4712 16.7888 23.64 17.5126C15.435 17.1001 8.16372 13.1701 3.29248 7.19633C2.44123 8.65883 1.95748 10.3538 1.95748 12.1613C1.95748 15.5851 3.69748 18.6076 6.34872 20.3813C4.72872 20.3288 3.20623 19.8826 1.87498 19.1438C1.87498 19.1851 1.87498 19.2263 1.87498 19.2676C1.87498 24.0526 5.27997 28.0388 9.79123 28.9501C8.96623 29.1751 8.09248 29.2951 7.19248 29.2951C6.55498 29.2951 5.93623 29.2351 5.33248 29.1151C6.59248 33.0338 10.2375 35.8951 14.5537 35.9738C11.1787 38.6213 6.92248 40.1963 2.29498 40.1963C1.49623 40.1963 0.712476 40.1513 -0.0562744 40.0576C4.30873 42.8626 9.49872 44.4938 15.075 44.4938C33.2325 44.4938 43.1625 29.4526 43.1625 16.4101C43.1625 15.9826 43.1512 15.5513 43.1362 15.1313C45.0637 13.7401 46.7362 12.0001 48.06 10.0201Z" fill="black"/>
</g>
<defs>
<clipPath id="clip0_18_207">
<rect width="48" height="48" fill="white"/>
</clipPath>
</defs>
</svg>
